# xmcd CD database file
#
# Track frame offsets:
#	150
#	11913
#	25218
#
# Disc length: 523 seconds
#
# Revision: 0
# Processed by: cddbd v1.4PL0 Copyright (c) Steve Scherf et al.
# Submitted via: CDex 1.40Release
#
DISCID=1c020903
DTITLE=Martina McBride - My Baby Loves Me [CD-s)
DYEAR=1994
DGENRE=Country
TTITLE0=My Baby Loves Me
TTITLE1=Ashes
TTITLE2=When You Are Old
EXTD=YEAR: 1994 ID3G: 2
EXTT0=
EXTT1=
EXTT2=
PLAYORDER=
